<svg xmlns="http://www.w3.org/2000/svg" viewBox="0 0 900 500" style="background-color:transparent; font-family: 'Inter', 'Segoe UI', sans-serif;">
    <defs>
        <marker id="arrow" markerWidth="10" markerHeight="10" refX="9" refY="3" orient="auto" markerUnits="strokeWidth">
            <path d="M0,0 L0,6 L9,3 z" fill="#64748b" />
        </marker>
        <filter id="glow" x="-20%" y="-20%" width="140%" height="140%">
            <feGaussianBlur stdDeviation="3" result="blur" />
            <feComposite in="SourceGraphic" in2="blur" operator="over" />
        </filter>
        <linearGradient id="protoGradient" x1="0%" y1="0%" x2="100%" y2="100%">
            <stop offset="0%" style="stop-color:#134e4a;stop-opacity:0.8" />
            <stop offset="100%" style="stop-color:#134e4a;stop-opacity:0.4" />
        </linearGradient>
    </defs>
    
    <g transform="translate(50, 200)">
        <rect width="140" height="100" rx="12" fill="#312e81" stroke="#6366f1" stroke-width="2" />
        <text x="70.0" y="45" text-anchor="middle" fill="#f8fafc" font-weight="bold" font-size="16">Multi-Modal</text>
        <text x="70.0" y="70" text-anchor="middle" fill="#94a3b8" font-size="12">Input Stream</text>
    </g>
    
    <g transform="translate(250, 100)">
        <rect width="400" height="300" rx="20" fill="url(#protoGradient)" stroke="#2dd4bf" stroke-width="2" stroke-dasharray="5,5" />
        <text x="200.0" y="40" text-anchor="middle" fill="#2dd4bf" font-weight="bold" font-size="14" letter-spacing="1">DETERMINISTIC PROTOCOL</text>
        <text x="200.0" y="280" text-anchor="middle" fill="#94a3b8" font-size="12">Verifiable Logic Layer</text>
    </g>
    <path d="M190,250.0 L350,250.0" stroke="#64748b" stroke-width="2" marker-end="url(#arrow)" /><path d="M550,250.0 L700,250.0" stroke="#64748b" stroke-width="2" marker-end="url(#arrow)" /><path d="M650,160 C700,160 650,190 700,190" stroke="#2dd4bf" stroke-width="1" stroke-dasharray="2,2" marker-end="url(#arrow)" opacity="0.6"/>
    <g transform="translate(350, 200)">
        <rect width="200" height="100" rx="12" fill="#0f172a" stroke="#38bdf8" stroke-width="3" filter="url(#glow)" />
        <text x="100.0" y="45" text-anchor="middle" fill="#f8fafc" font-weight="bold" font-size="20">CRU</text>
        <text x="100.0" y="75" text-anchor="middle" fill="#94a3b8" font-size="12">Probabilistic Kernel</text>
    </g>
    
    <g transform="translate(700, 150)">
        <rect width="160" height="200" rx="8" fill="#3f3f46" stroke="#a1a1aa" stroke-width="2" />
        <text x="80.0" y="25" text-anchor="middle" fill="#f8fafc" font-weight="bold" font-size="14">Execution Graph</text>
        <text x="80.0" y="180" text-anchor="middle" fill="#94a3b8" font-size="11">Structured Memory</text>
        
        <!-- Internal DAG mini-viz -->
        <circle cx="80" cy="50" r="10" fill="#fca5a5" opacity="0.8"/>
        <circle cx="50" cy="100" r="10" fill="#fcd34d" opacity="0.8"/>
        <circle cx="110" cy="100" r="10" fill="#fcd34d" opacity="0.8"/>
        <circle cx="80" cy="150" r="10" fill="#86efac" opacity="0.8"/>
        
        <path d="M80,60 L50,90" stroke="white" stroke-width="1" opacity="0.5"/>
        <path d="M80,60 L110,90" stroke="white" stroke-width="1" opacity="0.5"/>
        <path d="M50,110 L80,140" stroke="white" stroke-width="1" opacity="0.5"/>
        <path d="M110,110 L80,140" stroke="white" stroke-width="1" opacity="0.5"/>
    </g>
    </svg>