<svg xmlns="http://www.w3.org/2000/svg" viewBox="0 0 800 500" style="font-family: 'Computer Modern', serif;">
    <defs>
        <filter id="glow" x="-20%" y="-20%" width="140%" height="140%">
            <feGaussianBlur stdDeviation="2" result="blur" />
            <feComposite in="SourceGraphic" in2="blur" operator="over" />
        </filter>
        <marker id="arrowhead" markerWidth="10" markerHeight="7" refX="9" refY="3.5" orient="auto">
            <polygon points="0 0, 10 3.5, 0 7" fill="#94a3b8" />
        </marker>
    </defs>
    
    <!-- Background (Transparent or Styled) -->
    <!-- <rect width="100%" height="100%" fill="#0a0a1a" /> -->
    <path d="M 190 235.0 C 245.0 235.0, 245.0 135.0, 300 135.0" stroke="#94a3b8" stroke-width="2" fill="none" marker-end="url(#arrowhead)" opacity="0.8" />
<path d="M 190 235.0 C 245.0 235.0, 245.0 335.0, 300 335.0" stroke="#94a3b8" stroke-width="2" fill="none" marker-end="url(#arrowhead)" opacity="0.8" />
<path d="M 460 135.0 C 505.0 135.0, 505.0 135.0, 550 135.0" stroke="#94a3b8" stroke-width="2" fill="none" marker-end="url(#arrowhead)" opacity="0.8" />
<path d="M 710 135.0 C 655.0 135.0, 655.0 285.0, 600 285.0" stroke="#94a3b8" stroke-width="2" fill="none" marker-end="url(#arrowhead)" opacity="0.8" />
<path d="M 460 335.0 C 530.0 335.0, 530.0 285.0, 600 285.0" stroke="#94a3b8" stroke-width="2" fill="none" marker-end="url(#arrowhead)" opacity="0.8" />
<g transform="translate(50, 200)"><rect x="0" y="0" width="140" height="70" rx="6" fill="#111827" stroke="#3b82f6" stroke-width="1" filter="url(#glow)" opacity="0.3" /><rect x="0" y="0" width="140" height="70" rx="6" fill="#111827" stroke="#1e3a8a" stroke-width="1" /><path d="M 0 6 Q 0 0 6 0 L 134 0 Q 140 0 140 6 L 140 24 L 0 24 Z" fill="#1e293b" /><circle cx="15" cy="12" r="4" fill="#3b82f6" /><text x="28" y="16" fill="#e0e6ed" font-size="12" font-weight="bold" font-family="monospace">ROOT</text><text x="70.0" y="48" fill="#e0e6ed" font-size="12" text-anchor="middle" font-style="italic" opacity="0.8">Genesis</text></g>
<g transform="translate(300, 100)"><rect x="0" y="0" width="160" height="70" rx="6" fill="#111827" stroke="#8b5cf6" stroke-width="1" filter="url(#glow)" opacity="0.3" /><rect x="0" y="0" width="160" height="70" rx="6" fill="#111827" stroke="#1e3a8a" stroke-width="1" /><path d="M 0 6 Q 0 0 6 0 L 154 0 Q 160 0 160 6 L 160 24 L 0 24 Z" fill="#1e293b" /><circle cx="15" cy="12" r="4" fill="#8b5cf6" /><text x="28" y="16" fill="#e0e6ed" font-size="12" font-weight="bold" font-family="monospace">CTXB-01</text><text x="80.0" y="48" fill="#e0e6ed" font-size="12" text-anchor="middle" font-style="italic" opacity="0.8">User Segment A</text></g>
<g transform="translate(300, 300)"><rect x="0" y="0" width="160" height="70" rx="6" fill="#111827" stroke="#8b5cf6" stroke-width="1" filter="url(#glow)" opacity="0.3" /><rect x="0" y="0" width="160" height="70" rx="6" fill="#111827" stroke="#1e3a8a" stroke-width="1" /><path d="M 0 6 Q 0 0 6 0 L 154 0 Q 160 0 160 6 L 160 24 L 0 24 Z" fill="#1e293b" /><circle cx="15" cy="12" r="4" fill="#8b5cf6" /><text x="28" y="16" fill="#e0e6ed" font-size="12" font-weight="bold" font-family="monospace">CTXB-02</text><text x="80.0" y="48" fill="#e0e6ed" font-size="12" text-anchor="middle" font-style="italic" opacity="0.8">User Segment B</text></g>
<g transform="translate(550, 100)"><rect x="0" y="0" width="160" height="70" rx="6" fill="#111827" stroke="#f59e0b" stroke-width="1" filter="url(#glow)" opacity="0.3" /><rect x="0" y="0" width="160" height="70" rx="6" fill="#111827" stroke="#1e3a8a" stroke-width="1" /><path d="M 0 6 Q 0 0 6 0 L 154 0 Q 160 0 160 6 L 160 24 L 0 24 Z" fill="#1e293b" /><circle cx="15" cy="12" r="4" fill="#f59e0b" /><text x="28" y="16" fill="#e0e6ed" font-size="12" font-weight="bold" font-family="monospace">RSN-01</text><text x="80.0" y="48" fill="#e0e6ed" font-size="12" text-anchor="middle" font-style="italic" opacity="0.8">Analysis Node</text></g>
<g transform="translate(600, 250)"><rect x="0" y="0" width="160" height="70" rx="6" fill="#111827" stroke="#10b981" stroke-width="1" filter="url(#glow)" opacity="0.3" /><rect x="0" y="0" width="160" height="70" rx="6" fill="#111827" stroke="#1e3a8a" stroke-width="1" /><path d="M 0 6 Q 0 0 6 0 L 154 0 Q 160 0 160 6 L 160 24 L 0 24 Z" fill="#1e293b" /><circle cx="15" cy="12" r="4" fill="#10b981" /><text x="28" y="16" fill="#e0e6ed" font-size="12" font-weight="bold" font-family="monospace">FACT-01</text><text x="80.0" y="48" fill="#e0e6ed" font-size="12" text-anchor="middle" font-style="italic" opacity="0.8">Entity Extraction</text></g>
<text x="400.0" y="480" fill="#94a3b8" text-anchor="middle" font-size="14" font-family="monospace" opacity="0.5">FIG 2: CONTEXT STATE DAG TOPOLOGY</text></svg>